<svg version="1.2" xmlns="http://www.w3.org/2000/svg" viewBox="0 0 4096 4096" width="4096" height="4096">
	<title>New Project</title>
	<style>
		.s0 { fill: #ffffff } 
		.s1 { fill: #f9f7cf } 
	</style>
	<path id="Hypixel Plus" class="s0" aria-label="Hypixel Plus"  d="m208.5 2217.3q-12.6 0-21.3-8.6-8.6-8.6-8.6-21.3v-409.8q0-12.6 8.6-21.2 8.7-9.3 21.3-9.3 12.6 0 21.2 9.3 9.3 8.6 9.3 21.2v176.7h251.8v-176.7q0-12.6 8.6-21.2 8.6-9.3 21.2-9.3 12.7 0 21.3 9.3 9.3 8.6 9.3 21.2v409.8q0 12.7-9.3 21.3-8.6 8.6-21.3 8.6-12.6 0-21.2-8.6-8.6-8.6-8.6-21.3v-176.6h-251.8v176.6q0 12.7-9.3 21.3-8.6 8.6-21.2 8.6zm529.3 152.8q-11.9 0-20.6-8.7-7.9-8.6-7.9-20.5 0-5.4 2-10.7l43.1-110.9-124.8-304.2q-2.7-6.6-2.7-12.6 0-12.6 8.7-21.3 8.6-9.3 21.2-9.3 9.3 0 16.6 5.4 8 5.3 11.3 13.2l102.3 253.8 104.3-252.4q8.6-20 27.9-20 12.6 0 21.2 9.3 8.6 8.7 8.6 21.3 0 6-1.9 11.3l-181.4 435.7q-9.3 20.6-27.9 20.6zm310.9 0q-12.6 0-21.3-8.7-8.6-9.2-8.6-21.9v-437.7q0-12.6 8.6-21.2 8.7-8.7 21.3-8.7 12.6 0 21.2 8.7 9.3 8.6 9.3 21.2v17.3q48.5-50.5 113.6-50.5 41.2 0 77.7 21.3 37.2 20.6 59.8 61.1 23.2 39.8 23.2 93.6 0 53.8-23.2 94.3-22.6 39.9-59.8 61.2-36.5 20.5-77.7 20.5-65.1 0-113.6-50.4v169.3q0 13.3-8.6 21.9-8.6 8.7-21.9 8.7zm135.5-205.9q49.1 0 79-31.2 29.9-31.2 29.9-88.4 0-57.1-29.9-88.3-29.9-31.2-79-31.2-30.6 0-57.8 13.9-26.6 13.3-47.2 35.9v139.5q20.6 22.6 47.2 36.5 27.2 13.3 57.8 13.3zm282.3-358q-14 0-24-10-9.9-9.9-9.9-23.9v-2.6q0-14 9.9-24 10-9.9 24-9.9h3.9q14 0 23.9 9.9 10 10 10 24v2.6q0 14-10 23.9-9.9 10-23.9 10zm1.4 411.1q-12.7 0-21.3-8.6-8.6-8.6-8.6-21.3v-284.9q0-12.6 8.6-21.3 8.6-9.3 21.3-9.3 13.2 0 21.9 8.7 8.6 8.6 8.6 21.9v284.9q0 12.7-9.3 21.3-8.6 8.6-21.2 8.6zm145.4 0q-13.3 0-21.2-7.9-7.3-8.7-7.3-22.6 0-10 6.6-18.6l103-121.6-103-125.5q-7.3-9.3-7.3-19.3 0-13.3 8.6-21.2 8.7-8.7 21.3-8.7 15.9 0 23.9 11.3l93 114.9 92.3-114.9q8-11.3 23.3-11.3 13.2 0 21.9 8.7 8.6 7.9 8.6 19.9 0 10-6.6 18.6l-105 123.5 103.6 124.9q7.3 8 7.3 19.3 0 12.6-7.9 21.9-8 8.6-22.6 8.6-14.6 0-23.3-11.9l-94.3-112.9-89 111.5q-9.9 13.3-25.9 13.3zm492.2 3.3q-81 0-126.9-45.8-45.1-46.5-45.1-130.2 0-47.1 17.2-87 17.3-39.8 53.2-64.4 35.8-24.6 88.3-24.6 49.1 0 85 23.3 35.9 22.6 54.5 61.1 18.6 37.8 18.6 83 0 12.6-8.7 21.3-7.9 8.6-21.9 8.6h-225.1q5.3 46.5 34.5 72.4 29.2 25.9 81.7 25.9 27.9 0 48.5-5.3 21.2-5.3 41.2-15.3 5.3-2.7 11.9-2.7 10.6 0 18.6 7.3 8 7.4 8 18.6 0 14.7-17.3 24.6-25.9 14.6-51.1 21.9-25.3 7.3-65.1 7.3zm-110.9-203.9h195.9q-2-32.5-17.3-54.4-14.6-21.9-36.5-31.9-21.9-10.6-44.5-10.6-22.6 0-44.5 10.6-21.9 10-36.5 31.9-14.6 21.9-16.6 54.4zm365.3 200.6q-12.7 0-21.3-8.6-8.6-8.6-8.6-21.3v-431q0-12.6 8.6-21.3 8.6-9.3 21.3-9.3 13.3 0 21.9 8.7 8.6 8.6 8.6 21.9v431q0 12.7-9.3 21.3-8.6 8.6-21.2 8.6z"/>
	<path id="Hypixel Plus" class="s1" aria-label="Hypixel Plus"  d="m2709.8 2217.3q-12.6 0-21.2-8.6-8.7-8.6-8.7-21.3v-406.5q0-12.6 8.7-21.2 8.6-9.3 21.2-9.3h151.4q63.1 0 103 21.3 39.8 21.2 57.1 54.4 17.3 33.2 17.3 71.7 0 38.6-17.3 71.8-17.3 33.2-57.1 54.4-39.9 21.3-103 21.3h-120.8v142.1q0 12.7-9.3 21.3-8.7 8.6-21.3 8.6zm30.6-229.1h114.9q67.7 0 94.9-25.9 27.9-25.9 27.9-64.5 0-38.5-27.9-64.4-27.2-25.9-94.9-25.9h-114.9zm399.8 229.2q-12.6 0-21.3-8.7-8.6-8.6-8.6-21.2v-431.1q0-12.6 8.6-21.2 8.7-9.3 21.3-9.3 13.3 0 21.9 8.6 8.7 8.6 8.7 21.9v431.1q0 12.6-9.3 21.2-8.7 8.7-21.3 8.7zm251.1 3.3q-36.6 0-63.8-17.3-26.6-17.3-41.2-47.1-13.9-29.9-13.9-65.8v-188.6q0-12.6 8.6-21.3 9.3-8.6 21.9-8.6 12.6 0 21.3 8.6 8.6 8.7 8.6 21.3v182q0 81 73.1 81 33.2 0 59.1-17.3 26.6-17.2 49.8-46.5v-199.2q0-12.6 8.6-21.3 9.3-8.6 22-8.6 12.6 0 21.2 8.6 8.6 8.7 8.6 21.3v284.9q0 12.6-8.6 21.9-8.6 8.7-21.2 8.7-12.7 0-22-8.7-8.6-9.3-8.6-21.9v-27.2q-25.2 27.9-54.5 44.5-29.2 16.6-69 16.6zm398.5 0q-66.4 0-120.9-29.9-11.3-8-11.3-21.9 0-10.7 7.3-18.6 7.3-8 18.6-8 6 0 12 2.7 21.2 9.3 42.5 14.6 21.2 5.3 47.8 5.3 73.7 0 73.7-47.2 0-15.2-17.3-23.2-16.6-8-55.1-17.9-39.2-9.3-65.1-19.3-25.2-10-43.8-29.9-17.9-20.6-17.9-53.8 0-46.5 33.2-75.7 33.8-29.2 96.3-29.2 51.1 0 96.3 16.6 9.3 2.6 13.9 9.9 5.3 7.3 5.3 15.3 0 10.6-7.9 18.6-7.3 8-18.6 8-3.3 0-8.7-1.4-38.5-11.9-75.7-11.9-35.8 0-56.4 13.3-20 12.6-20 33.2 0 19.9 18.6 29.2 18.6 9.3 57.8 17.9 39.2 10 63.8 20 24.6 9.3 41.8 29.9 18 20.5 18 55.1 0 42.5-33.9 70.4-33.2 27.9-94.3 27.9z"/>
</svg>